<?xml version="1.0" encoding="UTF-8"?>
<svg id="Layer_1" data-name="Layer 1" xmlns="http://www.w3.org/2000/svg" xmlns:xlink="http://www.w3.org/1999/xlink" viewBox="0 0 612 792">
  <defs>
    <style>
      .cls-1 {
        fill: url(#linear-gradient-2);
      }

      .cls-2 {
        fill: #41b872;
      }

      .cls-3 {
        fill: url(#linear-gradient-3);
      }

      .cls-4 {
        fill: #223f7e;
      }

      .cls-5 {
        fill: url(#linear-gradient);
      }

      .cls-6 {
        fill: #5076ba;
      }

      .cls-7 {
        fill: #231f20;
      }

      .cls-8 {
        fill: url(#linear-gradient-4);
      }
    </style>
    <linearGradient id="linear-gradient" x1="-386.89" y1="1266.03" x2="-386.89" y2="1204" gradientTransform="translate(14.5 1585) rotate(-180)" gradientUnits="userSpaceOnUse">
      <stop offset="0" stop-color="#c9daf0"/>
      <stop offset="1" stop-color="#7e9fd3"/>
    </linearGradient>
    <linearGradient id="linear-gradient-2" x1="405.79" y1="1265.03" x2="405.79" y2="1207.78" gradientTransform="translate(0 1584) scale(1 -1)" gradientUnits="userSpaceOnUse">
      <stop offset="0" stop-color="#daedd8"/>
      <stop offset="1" stop-color="#9dd4b3"/>
    </linearGradient>
    <linearGradient id="linear-gradient-3" x1="379.96" x2="379.96" y2="1207.78" xlink:href="#linear-gradient-2"/>
    <linearGradient id="linear-gradient-4" x1="414.46" x2="414.46" y2="1207.78" xlink:href="#linear-gradient-2"/>
  </defs>
  <path class="cls-7" d="m393.44,440.57l2.1-1.1c2.65,0,8.18,8.88,16.57,26.63l4.75,9.94c0,1.47-.99,2.39-2.98,2.76h-.44c-1.99,0-5.67-5.97-11.05-17.9-3.39-6.63-5.45-10.31-6.19-11.05-8.1,16.35-13.19,24.79-15.25,25.3l-1.33.22c-2.5-.74-3.76-2.1-3.76-4.09,0-1.03,1.25-2.21,3.76-3.54l13.81-27.18Z"/>
  <g>
    <path class="cls-4" d="m401.39,314.2c-19.76,0-35.78,16.02-35.78,35.78v4.77c0,19.76,16.02,35.78,35.78,35.78s35.78-16.02,35.78-35.78v-4.77c0-19.76-16.02-35.78-35.78-35.78Z"/>
    <path class="cls-6" d="m370.38,349.98c0-17.13,13.88-31.01,31.01-31.01s31.01,13.88,31.01,31.01v4.77c0,17.13-13.88,31.01-31.01,31.01s-31.01-13.88-31.01-31.01v-4.77Z"/>
    <circle class="cls-5" cx="401.39" cy="349.98" r="31.01"/>
    <path class="cls-2" d="m398.01,329.91c-.89-.89-1.4-2.11-1.4-3.37v-7.2c1.56-.24,3.15-.36,4.77-.36,6.12,0,11.83,1.77,16.63,4.83l-8.08,8.08c-.89.89-2.11,1.4-3.37,1.4h-3.2c-1.27,0-2.48-.5-3.37-1.4l-1.98-1.98Z"/>
    <path class="cls-2" d="m428.9,335.67h-4.07c-1.27,0-2.48.5-3.37,1.4l-4.36,4.36c-.89.89-2.11,1.4-3.37,1.4h-7.97c-1.27,0-2.48.5-3.37,1.4l-1.98,1.98c-.89.89-1.4,2.11-1.4,3.37v5.88c0,1.08.43,2.12,1.19,2.88.62.62,1.02,1.41,1.15,2.27-.14,1.02-.61,1.97-1.35,2.71l-1.98,1.98c-.89.89-1.4,2.11-1.4,3.37v7.97c0,1.27.5,2.48,1.4,3.37l.89.89c.82.06,1.65.1,2.48.1,17.13,0,31.01-13.88,31.01-31.01,0-5.16-1.26-10.03-3.49-14.31Z"/>
    <path class="cls-2" d="m370.38,349.98c0,8.56,3.47,16.32,9.08,21.93l1.45-1.45c.89-.89,1.4-2.11,1.4-3.37v-5.59c0-1.27-.5-2.48-1.4-3.37l-1.98-1.98c-.41-.41-.73-.88-.97-1.4.23-.52.56-.99.97-1.4l4.36-4.36c.89-.89,1.4-2.11,1.4-3.37v-.82c0-1.27.5-2.48,1.4-3.37l1.98-1.98c.89-.89,1.4-2.11,1.4-3.37v-7.97c0-1.27-.5-2.48-1.4-3.37l-1.82-1.82c-9.47,5.31-15.87,15.44-15.87,27.07Z"/>
    <path class="cls-1" d="m409.94,327.12l5.02-5.02c-4.1-2-8.71-3.12-13.58-3.12-1.62,0-3.22.12-4.77.36v2.43c0,1.27.5,2.48,1.4,3.37l1.98,1.98c.89.89,2.11,1.4,3.37,1.4h3.2c1.27,0,2.48-.5,3.37-1.4Z"/>
    <path class="cls-3" d="m388.06,324.73l-1.82-1.82c-8.82,4.94-14.97,14.07-15.78,24.68.58,7.61,3.91,14.46,8.99,19.54l1.45-1.45c.89-.89,1.4-2.11,1.4-3.37v-.82c0-1.27-.5-2.48-1.4-3.37l-1.98-1.98c-.89-.89-1.4-2.11-1.4-3.37v-.82c0-1.27.5-2.48,1.4-3.37l4.36-4.36c.89-.89,1.4-2.11,1.4-3.37v-.82c0-1.27.5-2.48,1.4-3.37l1.98-1.98c.89-.89,1.4-2.11,1.4-3.37v-3.2c0-1.27-.5-2.48-1.4-3.37Z"/>
    <path class="cls-8" d="m432.31,347.6c-.33-4.28-1.52-8.31-3.4-11.93h-4.07c-1.27,0-2.48.5-3.37,1.4l-4.36,4.36c-.89.89-2.11,1.4-3.37,1.4h-7.97c-1.27,0-2.48.5-3.37,1.4l-1.98,1.98c-.89.89-1.4,2.11-1.4,3.37v1.11c0,1.08.43,2.12,1.19,2.88.76.76,1.19,1.8,1.19,2.88v3.49c0,1.27-.5,2.48-1.4,3.37l-1.98,1.98c-.89.89-1.4,2.11-1.4,3.37v3.2c0,1.27.5,2.48,1.4,3.37l.89.89c.82.06,1.65.1,2.48.1,16.32,0,29.7-12.61,30.92-28.62Z"/>
  </g>
  <path class="cls-7" d="m157.33,399.24c1.22,0,2.01,1.91,2.37,5.73l.31,4.13c0,3.11-.56,11.21-1.68,24.3h.46v.23l.31-.23h.61l8.94.69h.61l3.82-1.15h.53c.82.51,1.38,1.22,1.68,2.14,0,1.94-2.17,3.13-6.5,3.59l-7.79-.76h-1.45l-3.67.99c-1.38-.51-2.06-1.32-2.06-2.45l1.6-26.21v-1.15l-.46-7.64c0-1.27.79-2.01,2.37-2.22Zm27.39,11.62c2.04.05,5.48,3.62,10.32,10.7l.15,1.3c0,1.43-3.49,2.52-10.47,3.29l-.23.23v.31c1.07,4.59,2.19,6.88,3.36,6.88h.92c1.63,0,4.1-1.76,7.41-5.27h.46c1.02,0,1.81.74,2.37,2.22,0,1.22-2.14,3.34-6.42,6.34-1.12.66-2.47,1.15-4.05,1.45-4.13,0-7.01-3.87-8.64-11.62-2.34-.36-3.52-1.32-3.52-2.9,0-1.12.87-1.86,2.6-2.22v.31l.76-.31v-1.91c0-5.86,1.66-8.79,4.97-8.79Zm.46,5.5h-.69l-.31,2.83v2.37h.31c2.85-.1,4.28-.41,4.28-.92-1.32-1.99-2.52-3.41-3.59-4.28Zm25.79-24.45c1.43.31,2.14,1.02,2.14,2.14l-.46,3.36v.99c0,2.24.25,4.61.76,7.11h.15c5.91-1.78,9.58-2.67,11-2.67,1.48.41,2.22,1.15,2.22,2.22,0,1.73-1.76,2.6-5.27,2.6l-7.95,2.83c0,6.88.74,16.23,2.22,28.05-.31,1.38-1.04,2.06-2.22,2.06h-.15c-1.78,0-2.67-2.29-2.67-6.88-.66-3.41-1.22-10.83-1.68-22.24h-1.38c-4.79-.31-7.18-1.43-7.18-3.36,0-.56.53-1.25,1.6-2.06h.76l3.52.92h2.45l-.69-9.55c0-3.67.94-5.5,2.83-5.5Zm21.59,1.15c1.58,0,2.6,1.91,3.06,5.73v.46c0,1.73-.82,2.6-2.45,2.6s-2.37-1.66-2.37-4.97c-.36,0-.59-.59-.69-1.76.51-1.38,1.32-2.06,2.45-2.06Zm22.89,14.29c1.38,0,2.32,2.32,2.83,6.95-.51,1.27-1.35,1.91-2.52,1.91-.82-.15-1.63-1.1-2.45-2.83l-1.38-.46c-2.39,0-4.56,1.58-6.5,4.74v.69c0,.76,3.59,2.04,10.78,3.82,3.01,1.78,4.51,3.95,4.51,6.5,0,4.18-3.36,7.74-10.09,10.7l-2.83.46c-4.28-.46-6.42-2.6-6.42-6.42v-.23c0-1.22.79-1.94,2.37-2.14,1.22,0,2.04,1.27,2.45,3.82l.61.46h1.3c2.9,0,5.6-1.99,8.1-5.96v-.99c0-1.53-3.34-2.95-10.01-4.28-3.52-1.43-5.27-3.41-5.27-5.96,0-3.31,2.78-6.42,8.33-9.32,2.45-.31,4.51-.79,6.19-1.45Zm59.8-13.14c.92,0,1.55.79,1.91,2.37,0,.92-1.6,2.19-4.81,3.82-3.97,3.46-6.93,9.43-8.86,17.88v1.38c4.43-2.19,7.62-3.52,9.55-3.97.61,0,1.35.53,2.22,1.6v1.45c0,.56-2.24,1.68-6.72,3.36-3.36,1.83-5.04,2.88-5.04,3.13v.69c0,2.85,1.83,5.32,5.5,7.41l2.6.46c1.68,0,4.18-1.04,7.49-3.13h.92c1.07.51,1.6,1.25,1.6,2.22v.46c-3.16,3.31-6.65,4.97-10.47,4.97-5.45,0-9.42-3.67-11.92-11l-4.81.99c-2.34-.36-3.52-1.12-3.52-2.29s.69-2.01,2.06-2.52l1.76.31c2.65-.76,3.97-1.32,3.97-1.68,0-8.66,3.29-16.68,9.86-24.07,3.31-2.55,5.55-3.82,6.72-3.82Zm20.23,22.01h.15c1.02,0,1.66.82,1.91,2.45-1.27,5.15-1.91,9.12-1.91,11.92,1.32,2.24,3.23,3.36,5.73,3.36.66.61.99,1.25.99,1.91v.92c-.46.97-1.48,1.45-3.06,1.45-1.43-.1-2.8-.69-4.13-1.76h-.69c-.56,5.45-1.3,8.18-2.22,8.18h-1.38c-1.12-.61-1.68-1.32-1.68-2.14l1.45-11.46v-.31c-3.52-6.47-5.27-10.49-5.27-12.07,0-1.22.87-1.86,2.6-1.91,1.22,0,2.34,1.96,3.36,5.88l.31.31h.46c.51-4.48,1.63-6.72,3.36-6.72Zm18.93-.61c5.4,0,8.58,3.39,9.55,10.16,0,6.01-2.8,10.32-8.41,12.91-.61.31-1.45.46-2.52.46h-.53l-1.68-.15v.15l.31,20.4c-.36,1.58-1.17,2.37-2.45,2.37-1.43-.46-2.14-1.2-2.14-2.22l-.69-41.57c0-1.32.79-2.01,2.37-2.06l1.6.69c1.43-.76,2.95-1.15,4.59-1.15Zm-3.82,8.1l-.23,2.37.23,8.1,2.14.53c3.41,0,5.63-2.5,6.65-7.49v-1.15c-.36-4.02-1.78-6.04-4.28-6.04h-1.15c-2.24,0-3.36,1.22-3.36,3.67Zm21.31-27.51c1.43.51,2.14,1.3,2.14,2.37l.76,29.12v9.4c0,1.73-.74,2.6-2.22,2.6h-.99c-.92-.61-1.38-1.32-1.38-2.14v-8.86l-.69-30.26c0-1.27.79-2.01,2.37-2.22Zm47.3,12c3.21,0,5.12,2.24,5.73,6.72v.69c0,4.94-2.55,9.48-7.64,13.6,2.96,2.9,8.13,4.36,15.51,4.36,1.12.36,1.68,1.15,1.68,2.37,0,1.38-.89,2.06-2.67,2.06-4.99,0-10.24-1.27-15.74-3.82v2.22c0,5.25-1.12,7.87-3.36,7.87-1.58,0-2.37-3.03-2.37-9.09v-5.96l-.23-2.14.53-2.45-.53-7.34v-.31c0-1.38.71-2.32,2.14-2.83,1.99-3.97,4.31-5.96,6.95-5.96Zm-3.82,16.74c1.48,0,3.13-2.65,4.97-7.95v-3.29l-.92-.99h-.69c-2.24,1.53-3.36,5.6-3.36,12.23Zm28.52-14.06c2.04.05,5.48,3.62,10.32,10.7l.15,1.3c0,1.43-3.49,2.52-10.47,3.29l-.23.23v.31c1.07,4.59,2.19,6.88,3.36,6.88h.92c1.63,0,4.1-1.76,7.41-5.27h.46c1.02,0,1.81.74,2.37,2.22,0,1.22-2.14,3.34-6.42,6.34-1.12.66-2.47,1.15-4.05,1.45-4.13,0-7-3.87-8.64-11.62-2.34-.36-3.52-1.32-3.52-2.9,0-1.12.87-1.86,2.6-2.22v.31l.76-.31v-1.91c0-5.86,1.66-8.79,4.97-8.79Zm.46,5.5h-.69l-.31,2.83v2.37h.31c2.85-.1,4.28-.41,4.28-.92-1.32-1.99-2.52-3.41-3.59-4.28Z"/>
</svg>